<svg width="14" height="19" viewBox="0 0 14 19" fill="none" xmlns="http://www.w3.org/2000/svg">
<path d="M11.375 7.72746V3.95833C11.375 1.77254 9.41675 0 7 0C4.58238 0 2.625 1.77254 2.625 3.95833V7.72746C1.02637 8.88804 0 10.6677 0 12.6667C0 16.1643 3.13425 19 7 19C10.8658 19 14 16.1643 14 12.6667C14 10.6677 12.9736 8.88804 11.375 7.72746ZM4.375 3.95833C4.375 2.64892 5.55275 1.58333 7 1.58333C8.44725 1.58333 9.625 2.64892 9.625 3.95833V6.79804C8.81388 6.50038 7.92925 6.33333 7 6.33333C6.07075 6.33333 5.18612 6.50038 4.375 6.79804V3.95833ZM7 17.4167C4.10462 17.4167 1.75 15.2863 1.75 12.6667C1.75 10.047 4.10462 7.91667 7 7.91667C9.89538 7.91667 12.25 10.047 12.25 12.6667C12.25 15.2863 9.89538 17.4167 7 17.4167ZM8.75 11.875C8.75 12.4592 8.3965 12.9643 7.875 13.239V15.0417H6.125V13.239C5.6035 12.9643 5.25 12.46 5.25 11.875C5.25 11.001 6.034 10.2917 7 10.2917C7.966 10.2917 8.75 11.001 8.75 11.875Z" fill="black"/>
</svg>
