<svg width="14" height="19" viewBox="0 0 14 19" fill="none" xmlns="http://www.w3.org/2000/svg">
<path fill-rule="evenodd" clip-rule="evenodd" d="M11.8976 8.14695C13.1938 9.29575 14 10.8951 14 12.6667C14 16.1643 10.8658 19 7 19C3.13425 19 0 16.1643 0 12.6667C0 10.6677 1.02637 8.88804 2.625 7.72746V3.95833C2.625 1.77254 4.58238 0 7 0C9.41675 0 11.375 1.81421 11.375 4V5H9.625V4C9.625 2.69058 8.44725 1.58333 7 1.58333C5.55275 1.58333 4.375 2.64892 4.375 3.95833V6.79804C5.18612 6.50038 6.07075 6.33333 7 6.33333C7.71252 6.33333 8.39881 6.43154 9.04584 6.61155C10.2082 6.96561 10.8604 7.30652 11.8976 8.14695ZM1.75 12.6667C1.75 15.2863 4.10462 17.4167 7 17.4167C9.89538 17.4167 12.25 15.2863 12.25 12.6667C12.25 10.047 9.89538 7.91667 7 7.91667C4.10462 7.91667 1.75 10.047 1.75 12.6667ZM7.875 13.239C8.3965 12.9643 8.75 12.4592 8.75 11.875C8.75 11.001 7.966 10.2917 7 10.2917C6.034 10.2917 5.25 11.001 5.25 11.875C5.25 12.46 5.6035 12.9643 6.125 13.239V15.0417H7.875V13.239Z" fill="#B6B6B6"/>
</svg>
