<svg width="24" height="24" viewBox="0 0 24 24" fill="none" xmlns="http://www.w3.org/2000/svg">
<path d="M0 15.7942C0 20.7205 3.19991 24 8.87589 24H11.8092C12.5082 24 12.9649 23.4858 12.9649 22.8553C12.9649 22.2247 12.5082 21.7105 11.8092 21.7105H8.88889C4.55876 21.7105 2.27288 19.1384 2.27288 15.6658C2.27288 12.2058 4.55876 9.7879 8.88835 9.7879H17.6131L20.5849 9.65894L18.1847 11.7426L14.5275 15.3568C14.3243 15.5626 14.21 15.8068 14.21 16.1416C14.21 16.8105 14.6543 17.2732 15.3402 17.2732C15.6068 17.2732 15.9373 17.1447 16.1529 16.9132L23.619 9.49211C23.8861 9.24736 23.9999 8.95157 23.9999 8.64316C24.0022 8.48012 23.9693 8.31854 23.9035 8.16972C23.8377 8.0209 23.7406 7.88844 23.619 7.78159L16.1529 0.359995C15.9362 0.141583 15.6062 0 15.3402 0C14.6537 0 14.2094 0.463163 14.2094 1.13157C14.2094 1.46632 14.3238 1.71052 14.5269 1.91631L18.1841 5.5437L20.5843 7.62683L17.6125 7.48525H9.0796C3.28931 7.48525 0 10.8811 0 15.7942Z" fill="#232B3C"/>
</svg>
