<svg width="24" height="24" viewBox="0 0 24 24" fill="none" xmlns="http://www.w3.org/2000/svg">
<path d="M24 15.7942C24 10.8811 20.7242 7.4858 14.9209 7.4858H6.39986L3.41557 7.62684L5.82879 5.54315L9.486 1.91631C9.68864 1.71052 9.7905 1.46632 9.7905 1.13157C9.7905 0.463163 9.34622 0 8.67329 0C8.39371 0 8.06321 0.141583 7.84757 0.359995L0.380892 7.78104C0.126783 8.02579 0 8.32158 0 8.64261C0 8.95157 0.126783 9.24736 0.380892 9.49211L7.84757 16.9132C8.06587 17.1377 8.36221 17.2669 8.67329 17.2732C9.34622 17.2732 9.7905 16.8105 9.7905 16.1416C9.7905 15.8068 9.68864 15.5626 9.486 15.3568L5.82879 11.7426L3.41557 9.65894L6.39986 9.7879H15.1111C19.4412 9.7879 21.7401 12.2058 21.7401 15.6652C21.7401 19.1384 19.4412 21.7105 15.1111 21.7105H12.1907C11.4918 21.7105 11.035 22.2253 11.035 22.8553C11.035 23.4858 11.4923 24 12.1907 24H15.1241C20.8131 24 24 20.7205 24 15.7942Z" fill="#232B3C"/>
</svg>
