<svg width="24" height="24" viewBox="0 0 24 24" fill="none" xmlns="http://www.w3.org/2000/svg">
<path d="M3.70759 18.4293C2.78421 21.7086 2.32017 22.8017 0 22.8017C7.88391 26.6275 9.27601 20.069 9.27601 20.069L6.95584 17.3362C6.95584 17.3362 4.63566 16.7952 3.70759 18.4293ZM23.6517 0.409826C22.9955 -0.363068 21.8706 0.19452 21.8706 0.19452C20.23 0.580967 11.1322 11.3352 11.1322 11.3352L14.3804 15.1611C14.3804 15.1611 23.5111 4.44544 23.8392 2.5132C23.8345 2.50768 24.3079 1.1772 23.6517 0.409826ZM7.88391 16.2486L10.2041 18.9814L13.4523 16.2486L10.2041 12.4228L7.88391 16.2486Z" fill="#0B1426"/>
</svg>
