<svg width="24" height="24" viewBox="0 0 24 24" fill="none" xmlns="http://www.w3.org/2000/svg">
    <g clip-path="url(#clip0_399_134895)">
        <path
            d="M13.25 14.7498L7.5 20.4998L2 21.9998L3.5 16.4998L9.25 10.7498M13 6.99981L17 2.99981C17.2626 2.73717 17.5744 2.52883 17.9176 2.38669C18.2608 2.24455 18.6286 2.17139 19 2.17139C19.3714 2.17139 19.7392 2.24455 20.0824 2.38669C20.4256 2.52883 20.7374 2.73717 21 2.99981C21.2626 3.26246 21.471 3.57426 21.6131 3.91742C21.7553 4.26058 21.8284 4.62838 21.8284 4.99981C21.8284 5.37125 21.7553 5.73905 21.6131 6.08221C21.471 6.42537 21.2626 6.73717 21 6.99981L17 10.9998"
            stroke="currentColor" stroke-width="2" stroke-linecap="round" stroke-linejoin="round" />
        <path d="M1 1L23 23" stroke="currentColor" stroke-width="2" stroke-linecap="round"
            stroke-linejoin="round" />
    </g>
    <defs>
        <clipPath id="clip0_399_134895">
            <rect width="24" height="24" fill="currentColor" />
        </clipPath>
    </defs>
</svg>