<svg width="24" height="24" viewBox="0 0 24 24" fill="none" xmlns="http://www.w3.org/2000/svg">
    <path opacity="0.2"
        d="M15.6906 17.001L10.1537 23.0001H4.93401L1.46651 19.2432C1.29508 19.0575 1.15909 18.837 1.06631 18.5943C0.973534 18.3517 0.925781 18.0916 0.925781 17.829C0.925781 17.5663 0.973534 17.3063 1.06631 17.0636C1.15909 16.821 1.29508 16.6005 1.46651 16.4148L8.30807 9.0022L15.6906 17.001Z"
        fill="currentColor" />
    <path
        d="M23.1892 6.0527L18.4136 0.878477C17.8944 0.315996 17.1903 0 16.4561 0C15.7219 0 15.0177 0.315996 14.4985 0.878477L0.810799 15.7087C0.291651 16.2713 0 17.0342 0 17.8297C0 18.6252 0.291651 19.3881 0.810799 19.9506L4.2783 23.7075C4.36434 23.8007 4.46652 23.8744 4.57896 23.9246C4.6914 23.9748 4.81189 24.0004 4.9335 24H22.151C22.3958 24 22.6305 23.8947 22.8036 23.7071C22.9766 23.5196 23.0738 23.2653 23.0738 23.0001C23.0738 22.735 22.9766 22.4807 22.8036 22.2931C22.6305 22.1056 22.3958 22.0003 22.151 22.0003H12.3807L23.1892 10.2946C23.7083 9.73204 24 8.96912 24 8.17363C24 7.37813 23.7083 6.61522 23.1892 6.0527ZM9.77139 22.0003H5.31532L2.11774 18.5358C1.94481 18.3483 1.84767 18.0941 1.84767 17.829C1.84767 17.564 1.94481 17.3098 2.11774 17.1223L8.30872 10.4158L14.3866 17.001L9.77139 22.0003ZM21.8834 8.87727L15.6913 15.5875L9.61336 9.00225L15.8066 2.29576C15.8923 2.2028 15.9941 2.12905 16.1061 2.07874C16.2182 2.02842 16.3383 2.00252 16.4595 2.00252C16.5808 2.00252 16.7009 2.02842 16.8129 2.07874C16.9249 2.12905 17.0267 2.2028 17.1124 2.29576L21.8857 7.46749C22.0586 7.65497 22.1558 7.90919 22.1558 8.17425C22.1558 8.43932 22.0586 8.69353 21.8857 8.88102L21.8834 8.87727Z"
        fill="currentColor" />
</svg>